<mxfile host="app.diagrams.net" modified="2024-02-17T16:48:46.816Z" agent="Mozilla/5.0 (Windows NT 10.0; Win64; x64) AppleWebKit/537.36 (KHTML, like Gecko) Chrome/121.0.0.0 Safari/537.36" etag="QgbaiMJD6auQfkUUdM_e" version="23.1.5" type="device">
  <diagram id="C5RBs43oDa-KdzZeNtuy" name="Page-1">
    <mxGraphModel dx="1195" dy="688" grid="1" gridSize="10" guides="1" tooltips="1" connect="1" arrows="1" fold="1" page="1" pageScale="1" pageWidth="827" pageHeight="1169" math="0" shadow="0">
      <root>
        <mxCell id="WIyWlLk6GJQsqaUBKTNV-0" />
        <mxCell id="WIyWlLk6GJQsqaUBKTNV-1" parent="WIyWlLk6GJQsqaUBKTNV-0" />
        <mxCell id="_VbWp3tCUWTPlzPPY_zN-68" style="edgeStyle=orthogonalEdgeStyle;rounded=0;orthogonalLoop=1;jettySize=auto;html=1;entryX=1;entryY=0.5;entryDx=0;entryDy=0;" edge="1" parent="WIyWlLk6GJQsqaUBKTNV-1" source="WIyWlLk6GJQsqaUBKTNV-3" target="_VbWp3tCUWTPlzPPY_zN-0">
          <mxGeometry relative="1" as="geometry" />
        </mxCell>
        <mxCell id="WIyWlLk6GJQsqaUBKTNV-3" value="matrix&lt;br&gt;perm = [1..n]&lt;br&gt;toggle = 1" style="rounded=1;whiteSpace=wrap;html=1;fontSize=12;glass=0;strokeWidth=1;shadow=0;" parent="WIyWlLk6GJQsqaUBKTNV-1" vertex="1">
          <mxGeometry x="490" y="270" width="120" height="50" as="geometry" />
        </mxCell>
        <mxCell id="WIyWlLk6GJQsqaUBKTNV-7" value="j = 0" style="rounded=1;whiteSpace=wrap;html=1;fontSize=12;glass=0;strokeWidth=1;shadow=0;" parent="WIyWlLk6GJQsqaUBKTNV-1" vertex="1">
          <mxGeometry x="170" y="270" width="120" height="40" as="geometry" />
        </mxCell>
        <mxCell id="_VbWp3tCUWTPlzPPY_zN-11" value="Да" style="edgeStyle=orthogonalEdgeStyle;rounded=0;orthogonalLoop=1;jettySize=auto;html=1;" edge="1" parent="WIyWlLk6GJQsqaUBKTNV-1" source="WIyWlLk6GJQsqaUBKTNV-10" target="WIyWlLk6GJQsqaUBKTNV-12">
          <mxGeometry relative="1" as="geometry" />
        </mxCell>
        <mxCell id="_VbWp3tCUWTPlzPPY_zN-22" value="Нет" style="edgeStyle=orthogonalEdgeStyle;rounded=0;orthogonalLoop=1;jettySize=auto;html=1;" edge="1" parent="WIyWlLk6GJQsqaUBKTNV-1" source="WIyWlLk6GJQsqaUBKTNV-10" target="_VbWp3tCUWTPlzPPY_zN-21">
          <mxGeometry relative="1" as="geometry" />
        </mxCell>
        <mxCell id="WIyWlLk6GJQsqaUBKTNV-10" value="result[i][j] &amp;gt; colMax ?" style="rhombus;whiteSpace=wrap;html=1;shadow=0;fontFamily=Helvetica;fontSize=12;align=center;strokeWidth=1;spacing=6;spacingTop=-4;" parent="WIyWlLk6GJQsqaUBKTNV-1" vertex="1">
          <mxGeometry x="230" y="490" width="100" height="80" as="geometry" />
        </mxCell>
        <mxCell id="_VbWp3tCUWTPlzPPY_zN-23" style="edgeStyle=orthogonalEdgeStyle;rounded=0;orthogonalLoop=1;jettySize=auto;html=1;entryX=1;entryY=0.5;entryDx=0;entryDy=0;" edge="1" parent="WIyWlLk6GJQsqaUBKTNV-1" source="WIyWlLk6GJQsqaUBKTNV-12" target="_VbWp3tCUWTPlzPPY_zN-21">
          <mxGeometry relative="1" as="geometry" />
        </mxCell>
        <mxCell id="WIyWlLk6GJQsqaUBKTNV-12" value="Обновить colMax&lt;br&gt;pRow = i" style="rounded=1;whiteSpace=wrap;html=1;fontSize=12;glass=0;strokeWidth=1;shadow=0;" parent="WIyWlLk6GJQsqaUBKTNV-1" vertex="1">
          <mxGeometry x="390" y="620" width="120" height="40" as="geometry" />
        </mxCell>
        <mxCell id="_VbWp3tCUWTPlzPPY_zN-69" style="edgeStyle=orthogonalEdgeStyle;rounded=0;orthogonalLoop=1;jettySize=auto;html=1;entryX=1;entryY=0.5;entryDx=0;entryDy=0;" edge="1" parent="WIyWlLk6GJQsqaUBKTNV-1" source="_VbWp3tCUWTPlzPPY_zN-0" target="WIyWlLk6GJQsqaUBKTNV-7">
          <mxGeometry relative="1" as="geometry" />
        </mxCell>
        <mxCell id="_VbWp3tCUWTPlzPPY_zN-0" value="result = Копия matrix" style="rounded=1;whiteSpace=wrap;html=1;fontSize=12;glass=0;strokeWidth=1;shadow=0;" vertex="1" parent="WIyWlLk6GJQsqaUBKTNV-1">
          <mxGeometry x="330" y="270" width="120" height="40" as="geometry" />
        </mxCell>
        <mxCell id="_VbWp3tCUWTPlzPPY_zN-19" style="edgeStyle=orthogonalEdgeStyle;rounded=0;orthogonalLoop=1;jettySize=auto;html=1;" edge="1" parent="WIyWlLk6GJQsqaUBKTNV-1" source="_VbWp3tCUWTPlzPPY_zN-4" target="_VbWp3tCUWTPlzPPY_zN-6">
          <mxGeometry relative="1" as="geometry" />
        </mxCell>
        <mxCell id="_VbWp3tCUWTPlzPPY_zN-4" value="colMax = abs(result[j][j])&lt;br&gt;pRow = j" style="rounded=1;whiteSpace=wrap;html=1;fontSize=12;glass=0;strokeWidth=1;shadow=0;" vertex="1" parent="WIyWlLk6GJQsqaUBKTNV-1">
          <mxGeometry x="170" y="350" width="130" height="40" as="geometry" />
        </mxCell>
        <mxCell id="_VbWp3tCUWTPlzPPY_zN-20" style="edgeStyle=orthogonalEdgeStyle;rounded=0;orthogonalLoop=1;jettySize=auto;html=1;entryX=0.5;entryY=0;entryDx=0;entryDy=0;" edge="1" parent="WIyWlLk6GJQsqaUBKTNV-1" source="_VbWp3tCUWTPlzPPY_zN-6" target="WIyWlLk6GJQsqaUBKTNV-10">
          <mxGeometry relative="1" as="geometry" />
        </mxCell>
        <mxCell id="_VbWp3tCUWTPlzPPY_zN-6" value="i = j + 1" style="rounded=1;whiteSpace=wrap;html=1;fontSize=12;glass=0;strokeWidth=1;shadow=0;" vertex="1" parent="WIyWlLk6GJQsqaUBKTNV-1">
          <mxGeometry x="175" y="420" width="120" height="40" as="geometry" />
        </mxCell>
        <mxCell id="_VbWp3tCUWTPlzPPY_zN-16" value="Да" style="edgeStyle=orthogonalEdgeStyle;rounded=0;orthogonalLoop=1;jettySize=auto;html=1;entryX=0;entryY=0.5;entryDx=0;entryDy=0;" edge="1" parent="WIyWlLk6GJQsqaUBKTNV-1" source="_VbWp3tCUWTPlzPPY_zN-8" target="_VbWp3tCUWTPlzPPY_zN-14">
          <mxGeometry relative="1" as="geometry" />
        </mxCell>
        <mxCell id="_VbWp3tCUWTPlzPPY_zN-32" value="Нет" style="edgeStyle=orthogonalEdgeStyle;rounded=0;orthogonalLoop=1;jettySize=auto;html=1;" edge="1" parent="WIyWlLk6GJQsqaUBKTNV-1" source="_VbWp3tCUWTPlzPPY_zN-8" target="_VbWp3tCUWTPlzPPY_zN-31">
          <mxGeometry relative="1" as="geometry" />
        </mxCell>
        <mxCell id="_VbWp3tCUWTPlzPPY_zN-8" value="pRow != j ?" style="rhombus;whiteSpace=wrap;html=1;shadow=0;fontFamily=Helvetica;fontSize=12;align=center;strokeWidth=1;spacing=6;spacingTop=-4;" vertex="1" parent="WIyWlLk6GJQsqaUBKTNV-1">
          <mxGeometry x="230" y="710" width="100" height="80" as="geometry" />
        </mxCell>
        <mxCell id="_VbWp3tCUWTPlzPPY_zN-17" style="edgeStyle=orthogonalEdgeStyle;rounded=0;orthogonalLoop=1;jettySize=auto;html=1;" edge="1" parent="WIyWlLk6GJQsqaUBKTNV-1" source="_VbWp3tCUWTPlzPPY_zN-14" target="_VbWp3tCUWTPlzPPY_zN-15">
          <mxGeometry relative="1" as="geometry" />
        </mxCell>
        <mxCell id="_VbWp3tCUWTPlzPPY_zN-14" value="Поменять:&lt;br&gt;result[pRow] и result[j]" style="rounded=1;whiteSpace=wrap;html=1;fontSize=12;glass=0;strokeWidth=1;shadow=0;" vertex="1" parent="WIyWlLk6GJQsqaUBKTNV-1">
          <mxGeometry x="390" y="730" width="150" height="40" as="geometry" />
        </mxCell>
        <mxCell id="_VbWp3tCUWTPlzPPY_zN-74" style="edgeStyle=orthogonalEdgeStyle;rounded=0;orthogonalLoop=1;jettySize=auto;html=1;" edge="1" parent="WIyWlLk6GJQsqaUBKTNV-1" source="_VbWp3tCUWTPlzPPY_zN-15" target="_VbWp3tCUWTPlzPPY_zN-73">
          <mxGeometry relative="1" as="geometry" />
        </mxCell>
        <mxCell id="_VbWp3tCUWTPlzPPY_zN-15" value="Поменять:&lt;br&gt;perm[pRow] и perm[j]" style="rounded=1;whiteSpace=wrap;html=1;fontSize=12;glass=0;strokeWidth=1;shadow=0;" vertex="1" parent="WIyWlLk6GJQsqaUBKTNV-1">
          <mxGeometry x="390" y="790" width="150" height="40" as="geometry" />
        </mxCell>
        <mxCell id="_VbWp3tCUWTPlzPPY_zN-18" style="edgeStyle=orthogonalEdgeStyle;rounded=0;orthogonalLoop=1;jettySize=auto;html=1;entryX=0.462;entryY=0.008;entryDx=0;entryDy=0;entryPerimeter=0;" edge="1" parent="WIyWlLk6GJQsqaUBKTNV-1" source="WIyWlLk6GJQsqaUBKTNV-7" target="_VbWp3tCUWTPlzPPY_zN-4">
          <mxGeometry relative="1" as="geometry" />
        </mxCell>
        <mxCell id="_VbWp3tCUWTPlzPPY_zN-26" style="edgeStyle=orthogonalEdgeStyle;rounded=0;orthogonalLoop=1;jettySize=auto;html=1;entryX=1;entryY=0.5;entryDx=0;entryDy=0;" edge="1" parent="WIyWlLk6GJQsqaUBKTNV-1" source="_VbWp3tCUWTPlzPPY_zN-21" target="_VbWp3tCUWTPlzPPY_zN-25">
          <mxGeometry relative="1" as="geometry" />
        </mxCell>
        <mxCell id="_VbWp3tCUWTPlzPPY_zN-29" value="Нет" style="edgeStyle=orthogonalEdgeStyle;rounded=0;orthogonalLoop=1;jettySize=auto;html=1;entryX=0.5;entryY=0;entryDx=0;entryDy=0;" edge="1" parent="WIyWlLk6GJQsqaUBKTNV-1" source="_VbWp3tCUWTPlzPPY_zN-21" target="_VbWp3tCUWTPlzPPY_zN-8">
          <mxGeometry relative="1" as="geometry" />
        </mxCell>
        <mxCell id="_VbWp3tCUWTPlzPPY_zN-21" value="i &amp;lt; n ?" style="rhombus;whiteSpace=wrap;html=1;shadow=0;fontFamily=Helvetica;fontSize=12;align=center;strokeWidth=1;spacing=6;spacingTop=-4;" vertex="1" parent="WIyWlLk6GJQsqaUBKTNV-1">
          <mxGeometry x="230" y="600" width="100" height="80" as="geometry" />
        </mxCell>
        <mxCell id="_VbWp3tCUWTPlzPPY_zN-27" style="edgeStyle=orthogonalEdgeStyle;rounded=0;orthogonalLoop=1;jettySize=auto;html=1;entryX=0;entryY=0.5;entryDx=0;entryDy=0;" edge="1" parent="WIyWlLk6GJQsqaUBKTNV-1" source="_VbWp3tCUWTPlzPPY_zN-25" target="WIyWlLk6GJQsqaUBKTNV-10">
          <mxGeometry relative="1" as="geometry">
            <Array as="points">
              <mxPoint x="130" y="530" />
            </Array>
          </mxGeometry>
        </mxCell>
        <mxCell id="_VbWp3tCUWTPlzPPY_zN-25" value="++i" style="rounded=1;whiteSpace=wrap;html=1;fontSize=12;glass=0;strokeWidth=1;shadow=0;" vertex="1" parent="WIyWlLk6GJQsqaUBKTNV-1">
          <mxGeometry x="70" y="620" width="120" height="40" as="geometry" />
        </mxCell>
        <mxCell id="_VbWp3tCUWTPlzPPY_zN-37" value="Да" style="edgeStyle=orthogonalEdgeStyle;rounded=0;orthogonalLoop=1;jettySize=auto;html=1;entryX=1;entryY=0.5;entryDx=0;entryDy=0;" edge="1" parent="WIyWlLk6GJQsqaUBKTNV-1" source="_VbWp3tCUWTPlzPPY_zN-31" target="_VbWp3tCUWTPlzPPY_zN-36">
          <mxGeometry relative="1" as="geometry" />
        </mxCell>
        <mxCell id="_VbWp3tCUWTPlzPPY_zN-39" value="Нет" style="edgeStyle=orthogonalEdgeStyle;rounded=0;orthogonalLoop=1;jettySize=auto;html=1;entryX=0.5;entryY=0;entryDx=0;entryDy=0;" edge="1" parent="WIyWlLk6GJQsqaUBKTNV-1" source="_VbWp3tCUWTPlzPPY_zN-31" target="_VbWp3tCUWTPlzPPY_zN-38">
          <mxGeometry relative="1" as="geometry" />
        </mxCell>
        <mxCell id="_VbWp3tCUWTPlzPPY_zN-31" value="Число в [j][j] маленькое?" style="rhombus;whiteSpace=wrap;html=1;shadow=0;fontFamily=Helvetica;fontSize=12;align=center;strokeWidth=1;spacing=6;spacingTop=-4;" vertex="1" parent="WIyWlLk6GJQsqaUBKTNV-1">
          <mxGeometry x="230" y="830" width="100" height="80" as="geometry" />
        </mxCell>
        <mxCell id="_VbWp3tCUWTPlzPPY_zN-67" style="edgeStyle=orthogonalEdgeStyle;rounded=0;orthogonalLoop=1;jettySize=auto;html=1;entryX=1;entryY=0.5;entryDx=0;entryDy=0;" edge="1" parent="WIyWlLk6GJQsqaUBKTNV-1" source="_VbWp3tCUWTPlzPPY_zN-34" target="WIyWlLk6GJQsqaUBKTNV-3">
          <mxGeometry relative="1" as="geometry" />
        </mxCell>
        <mxCell id="_VbWp3tCUWTPlzPPY_zN-34" value="Начало" style="ellipse;whiteSpace=wrap;html=1;" vertex="1" parent="WIyWlLk6GJQsqaUBKTNV-1">
          <mxGeometry x="660" y="270" width="120" height="50" as="geometry" />
        </mxCell>
        <mxCell id="_VbWp3tCUWTPlzPPY_zN-36" value="Вернуть 0" style="ellipse;whiteSpace=wrap;html=1;" vertex="1" parent="WIyWlLk6GJQsqaUBKTNV-1">
          <mxGeometry x="55" y="845" width="120" height="50" as="geometry" />
        </mxCell>
        <mxCell id="_VbWp3tCUWTPlzPPY_zN-48" style="edgeStyle=orthogonalEdgeStyle;rounded=0;orthogonalLoop=1;jettySize=auto;html=1;entryX=0.5;entryY=0;entryDx=0;entryDy=0;" edge="1" parent="WIyWlLk6GJQsqaUBKTNV-1" source="_VbWp3tCUWTPlzPPY_zN-38" target="_VbWp3tCUWTPlzPPY_zN-40">
          <mxGeometry relative="1" as="geometry" />
        </mxCell>
        <mxCell id="_VbWp3tCUWTPlzPPY_zN-38" value="i = j + 1" style="rounded=1;whiteSpace=wrap;html=1;fontSize=12;glass=0;strokeWidth=1;shadow=0;" vertex="1" parent="WIyWlLk6GJQsqaUBKTNV-1">
          <mxGeometry x="220" y="940" width="120" height="40" as="geometry" />
        </mxCell>
        <mxCell id="_VbWp3tCUWTPlzPPY_zN-49" style="edgeStyle=orthogonalEdgeStyle;rounded=0;orthogonalLoop=1;jettySize=auto;html=1;entryX=0.5;entryY=0;entryDx=0;entryDy=0;" edge="1" parent="WIyWlLk6GJQsqaUBKTNV-1" source="_VbWp3tCUWTPlzPPY_zN-40" target="_VbWp3tCUWTPlzPPY_zN-41">
          <mxGeometry relative="1" as="geometry">
            <mxPoint x="280" y="1080" as="targetPoint" />
          </mxGeometry>
        </mxCell>
        <mxCell id="_VbWp3tCUWTPlzPPY_zN-40" value="Поделить result[i][j] на result[j][j]" style="rounded=1;whiteSpace=wrap;html=1;fontSize=12;glass=0;strokeWidth=1;shadow=0;" vertex="1" parent="WIyWlLk6GJQsqaUBKTNV-1">
          <mxGeometry x="220" y="1000" width="120" height="40" as="geometry" />
        </mxCell>
        <mxCell id="_VbWp3tCUWTPlzPPY_zN-50" style="edgeStyle=orthogonalEdgeStyle;rounded=0;orthogonalLoop=1;jettySize=auto;html=1;entryX=0.5;entryY=0;entryDx=0;entryDy=0;" edge="1" parent="WIyWlLk6GJQsqaUBKTNV-1" source="_VbWp3tCUWTPlzPPY_zN-41" target="_VbWp3tCUWTPlzPPY_zN-42">
          <mxGeometry relative="1" as="geometry" />
        </mxCell>
        <mxCell id="_VbWp3tCUWTPlzPPY_zN-41" value="k = j + 1" style="rounded=1;whiteSpace=wrap;html=1;fontSize=12;glass=0;strokeWidth=1;shadow=0;" vertex="1" parent="WIyWlLk6GJQsqaUBKTNV-1">
          <mxGeometry x="220" y="1060" width="120" height="40" as="geometry" />
        </mxCell>
        <mxCell id="_VbWp3tCUWTPlzPPY_zN-51" style="edgeStyle=orthogonalEdgeStyle;rounded=0;orthogonalLoop=1;jettySize=auto;html=1;" edge="1" parent="WIyWlLk6GJQsqaUBKTNV-1" source="_VbWp3tCUWTPlzPPY_zN-42" target="_VbWp3tCUWTPlzPPY_zN-44">
          <mxGeometry relative="1" as="geometry" />
        </mxCell>
        <mxCell id="_VbWp3tCUWTPlzPPY_zN-42" value="Вычесть из result[i][k] перемножение [i][j] на [j][k]" style="rounded=1;whiteSpace=wrap;html=1;fontSize=12;glass=0;strokeWidth=1;shadow=0;" vertex="1" parent="WIyWlLk6GJQsqaUBKTNV-1">
          <mxGeometry x="200" y="1129" width="160" height="40" as="geometry" />
        </mxCell>
        <mxCell id="_VbWp3tCUWTPlzPPY_zN-46" value="Нет" style="edgeStyle=orthogonalEdgeStyle;rounded=0;orthogonalLoop=1;jettySize=auto;html=1;entryX=1;entryY=0.5;entryDx=0;entryDy=0;" edge="1" parent="WIyWlLk6GJQsqaUBKTNV-1" source="_VbWp3tCUWTPlzPPY_zN-44" target="_VbWp3tCUWTPlzPPY_zN-45">
          <mxGeometry relative="1" as="geometry" />
        </mxCell>
        <mxCell id="_VbWp3tCUWTPlzPPY_zN-55" value="Да" style="edgeStyle=orthogonalEdgeStyle;rounded=0;orthogonalLoop=1;jettySize=auto;html=1;entryX=0;entryY=0.5;entryDx=0;entryDy=0;" edge="1" parent="WIyWlLk6GJQsqaUBKTNV-1" source="_VbWp3tCUWTPlzPPY_zN-44" target="_VbWp3tCUWTPlzPPY_zN-54">
          <mxGeometry relative="1" as="geometry" />
        </mxCell>
        <mxCell id="_VbWp3tCUWTPlzPPY_zN-44" value="k &amp;lt; n ?" style="rhombus;whiteSpace=wrap;html=1;shadow=0;fontFamily=Helvetica;fontSize=12;align=center;strokeWidth=1;spacing=6;spacingTop=-4;" vertex="1" parent="WIyWlLk6GJQsqaUBKTNV-1">
          <mxGeometry x="230" y="1200" width="100" height="80" as="geometry" />
        </mxCell>
        <mxCell id="_VbWp3tCUWTPlzPPY_zN-53" style="edgeStyle=orthogonalEdgeStyle;rounded=0;orthogonalLoop=1;jettySize=auto;html=1;entryX=0;entryY=0.5;entryDx=0;entryDy=0;" edge="1" parent="WIyWlLk6GJQsqaUBKTNV-1" source="_VbWp3tCUWTPlzPPY_zN-45" target="_VbWp3tCUWTPlzPPY_zN-42">
          <mxGeometry relative="1" as="geometry">
            <Array as="points">
              <mxPoint x="120" y="1149" />
            </Array>
          </mxGeometry>
        </mxCell>
        <mxCell id="_VbWp3tCUWTPlzPPY_zN-45" value="++k" style="rounded=1;whiteSpace=wrap;html=1;fontSize=12;glass=0;strokeWidth=1;shadow=0;" vertex="1" parent="WIyWlLk6GJQsqaUBKTNV-1">
          <mxGeometry x="60" y="1220" width="120" height="40" as="geometry" />
        </mxCell>
        <mxCell id="_VbWp3tCUWTPlzPPY_zN-58" value="Нет" style="edgeStyle=orthogonalEdgeStyle;rounded=0;orthogonalLoop=1;jettySize=auto;html=1;entryX=0.5;entryY=1;entryDx=0;entryDy=0;" edge="1" parent="WIyWlLk6GJQsqaUBKTNV-1" source="_VbWp3tCUWTPlzPPY_zN-54" target="_VbWp3tCUWTPlzPPY_zN-57">
          <mxGeometry relative="1" as="geometry" />
        </mxCell>
        <mxCell id="_VbWp3tCUWTPlzPPY_zN-61" value="Да" style="edgeStyle=orthogonalEdgeStyle;rounded=0;orthogonalLoop=1;jettySize=auto;html=1;entryX=0;entryY=0.5;entryDx=0;entryDy=0;" edge="1" parent="WIyWlLk6GJQsqaUBKTNV-1" source="_VbWp3tCUWTPlzPPY_zN-54" target="_VbWp3tCUWTPlzPPY_zN-60">
          <mxGeometry relative="1" as="geometry" />
        </mxCell>
        <mxCell id="_VbWp3tCUWTPlzPPY_zN-54" value="i &amp;lt; n ?" style="rhombus;whiteSpace=wrap;html=1;shadow=0;fontFamily=Helvetica;fontSize=12;align=center;strokeWidth=1;spacing=6;spacingTop=-4;" vertex="1" parent="WIyWlLk6GJQsqaUBKTNV-1">
          <mxGeometry x="390" y="1200" width="100" height="80" as="geometry" />
        </mxCell>
        <mxCell id="_VbWp3tCUWTPlzPPY_zN-59" style="edgeStyle=orthogonalEdgeStyle;rounded=0;orthogonalLoop=1;jettySize=auto;html=1;entryX=1;entryY=0.5;entryDx=0;entryDy=0;" edge="1" parent="WIyWlLk6GJQsqaUBKTNV-1" source="_VbWp3tCUWTPlzPPY_zN-57" target="_VbWp3tCUWTPlzPPY_zN-40">
          <mxGeometry relative="1" as="geometry">
            <Array as="points">
              <mxPoint x="440" y="1020" />
            </Array>
          </mxGeometry>
        </mxCell>
        <mxCell id="_VbWp3tCUWTPlzPPY_zN-57" value="++i" style="rounded=1;whiteSpace=wrap;html=1;fontSize=12;glass=0;strokeWidth=1;shadow=0;" vertex="1" parent="WIyWlLk6GJQsqaUBKTNV-1">
          <mxGeometry x="380" y="1129" width="120" height="40" as="geometry" />
        </mxCell>
        <mxCell id="_VbWp3tCUWTPlzPPY_zN-63" value="Нет" style="edgeStyle=orthogonalEdgeStyle;rounded=0;orthogonalLoop=1;jettySize=auto;html=1;entryX=0.5;entryY=1;entryDx=0;entryDy=0;" edge="1" parent="WIyWlLk6GJQsqaUBKTNV-1" source="_VbWp3tCUWTPlzPPY_zN-60" target="_VbWp3tCUWTPlzPPY_zN-62">
          <mxGeometry relative="1" as="geometry" />
        </mxCell>
        <mxCell id="_VbWp3tCUWTPlzPPY_zN-72" value="Да" style="edgeStyle=orthogonalEdgeStyle;rounded=0;orthogonalLoop=1;jettySize=auto;html=1;entryX=0.5;entryY=0;entryDx=0;entryDy=0;" edge="1" parent="WIyWlLk6GJQsqaUBKTNV-1" source="_VbWp3tCUWTPlzPPY_zN-60" target="_VbWp3tCUWTPlzPPY_zN-71">
          <mxGeometry relative="1" as="geometry" />
        </mxCell>
        <mxCell id="_VbWp3tCUWTPlzPPY_zN-60" value="j &amp;lt; n - 1 ?" style="rhombus;whiteSpace=wrap;html=1;shadow=0;fontFamily=Helvetica;fontSize=12;align=center;strokeWidth=1;spacing=6;spacingTop=-4;" vertex="1" parent="WIyWlLk6GJQsqaUBKTNV-1">
          <mxGeometry x="550" y="1200" width="100" height="80" as="geometry" />
        </mxCell>
        <mxCell id="_VbWp3tCUWTPlzPPY_zN-64" style="edgeStyle=orthogonalEdgeStyle;rounded=0;orthogonalLoop=1;jettySize=auto;html=1;entryX=1;entryY=0.5;entryDx=0;entryDy=0;" edge="1" parent="WIyWlLk6GJQsqaUBKTNV-1" source="_VbWp3tCUWTPlzPPY_zN-62" target="_VbWp3tCUWTPlzPPY_zN-4">
          <mxGeometry relative="1" as="geometry">
            <Array as="points">
              <mxPoint x="600" y="370" />
            </Array>
          </mxGeometry>
        </mxCell>
        <mxCell id="_VbWp3tCUWTPlzPPY_zN-62" value="++j" style="rounded=1;whiteSpace=wrap;html=1;fontSize=12;glass=0;strokeWidth=1;shadow=0;" vertex="1" parent="WIyWlLk6GJQsqaUBKTNV-1">
          <mxGeometry x="540" y="1129" width="120" height="40" as="geometry" />
        </mxCell>
        <mxCell id="_VbWp3tCUWTPlzPPY_zN-78" style="edgeStyle=orthogonalEdgeStyle;rounded=0;orthogonalLoop=1;jettySize=auto;html=1;entryX=1;entryY=0.5;entryDx=0;entryDy=0;" edge="1" parent="WIyWlLk6GJQsqaUBKTNV-1" source="_VbWp3tCUWTPlzPPY_zN-71" target="_VbWp3tCUWTPlzPPY_zN-76">
          <mxGeometry relative="1" as="geometry" />
        </mxCell>
        <mxCell id="_VbWp3tCUWTPlzPPY_zN-71" value="determinant = toggle" style="rounded=1;whiteSpace=wrap;html=1;fontSize=12;glass=0;strokeWidth=1;shadow=0;" vertex="1" parent="WIyWlLk6GJQsqaUBKTNV-1">
          <mxGeometry x="540" y="1320" width="120" height="40" as="geometry" />
        </mxCell>
        <mxCell id="_VbWp3tCUWTPlzPPY_zN-75" style="edgeStyle=orthogonalEdgeStyle;rounded=0;orthogonalLoop=1;jettySize=auto;html=1;entryX=1;entryY=0.5;entryDx=0;entryDy=0;" edge="1" parent="WIyWlLk6GJQsqaUBKTNV-1" source="_VbWp3tCUWTPlzPPY_zN-73" target="_VbWp3tCUWTPlzPPY_zN-31">
          <mxGeometry relative="1" as="geometry" />
        </mxCell>
        <mxCell id="_VbWp3tCUWTPlzPPY_zN-73" value="Поменять: toggle" style="rounded=1;whiteSpace=wrap;html=1;fontSize=12;glass=0;strokeWidth=1;shadow=0;" vertex="1" parent="WIyWlLk6GJQsqaUBKTNV-1">
          <mxGeometry x="390" y="850" width="150" height="40" as="geometry" />
        </mxCell>
        <mxCell id="_VbWp3tCUWTPlzPPY_zN-79" style="edgeStyle=orthogonalEdgeStyle;rounded=0;orthogonalLoop=1;jettySize=auto;html=1;entryX=0.5;entryY=0;entryDx=0;entryDy=0;" edge="1" parent="WIyWlLk6GJQsqaUBKTNV-1" source="_VbWp3tCUWTPlzPPY_zN-76" target="_VbWp3tCUWTPlzPPY_zN-77">
          <mxGeometry relative="1" as="geometry" />
        </mxCell>
        <mxCell id="_VbWp3tCUWTPlzPPY_zN-76" value="i = 0" style="rounded=1;whiteSpace=wrap;html=1;fontSize=12;glass=0;strokeWidth=1;shadow=0;" vertex="1" parent="WIyWlLk6GJQsqaUBKTNV-1">
          <mxGeometry x="380" y="1320" width="120" height="40" as="geometry" />
        </mxCell>
        <mxCell id="_VbWp3tCUWTPlzPPY_zN-81" style="edgeStyle=orthogonalEdgeStyle;rounded=0;orthogonalLoop=1;jettySize=auto;html=1;entryX=0.5;entryY=0;entryDx=0;entryDy=0;" edge="1" parent="WIyWlLk6GJQsqaUBKTNV-1" source="_VbWp3tCUWTPlzPPY_zN-77" target="_VbWp3tCUWTPlzPPY_zN-80">
          <mxGeometry relative="1" as="geometry" />
        </mxCell>
        <mxCell id="_VbWp3tCUWTPlzPPY_zN-77" value="determinant *= [i][i]" style="rounded=1;whiteSpace=wrap;html=1;fontSize=12;glass=0;strokeWidth=1;shadow=0;" vertex="1" parent="WIyWlLk6GJQsqaUBKTNV-1">
          <mxGeometry x="380" y="1390" width="120" height="40" as="geometry" />
        </mxCell>
        <mxCell id="_VbWp3tCUWTPlzPPY_zN-83" value="Нет" style="edgeStyle=orthogonalEdgeStyle;rounded=0;orthogonalLoop=1;jettySize=auto;html=1;entryX=1;entryY=0.5;entryDx=0;entryDy=0;" edge="1" parent="WIyWlLk6GJQsqaUBKTNV-1" source="_VbWp3tCUWTPlzPPY_zN-80" target="_VbWp3tCUWTPlzPPY_zN-82">
          <mxGeometry relative="1" as="geometry" />
        </mxCell>
        <mxCell id="_VbWp3tCUWTPlzPPY_zN-86" style="edgeStyle=orthogonalEdgeStyle;rounded=0;orthogonalLoop=1;jettySize=auto;html=1;entryX=0;entryY=0.5;entryDx=0;entryDy=0;" edge="1" parent="WIyWlLk6GJQsqaUBKTNV-1" source="_VbWp3tCUWTPlzPPY_zN-80" target="_VbWp3tCUWTPlzPPY_zN-85">
          <mxGeometry relative="1" as="geometry" />
        </mxCell>
        <mxCell id="_VbWp3tCUWTPlzPPY_zN-80" value="i &amp;lt; n ?" style="rhombus;whiteSpace=wrap;html=1;shadow=0;fontFamily=Helvetica;fontSize=12;align=center;strokeWidth=1;spacing=6;spacingTop=-4;" vertex="1" parent="WIyWlLk6GJQsqaUBKTNV-1">
          <mxGeometry x="390" y="1460" width="100" height="80" as="geometry" />
        </mxCell>
        <mxCell id="_VbWp3tCUWTPlzPPY_zN-84" style="edgeStyle=orthogonalEdgeStyle;rounded=0;orthogonalLoop=1;jettySize=auto;html=1;entryX=0;entryY=0.5;entryDx=0;entryDy=0;" edge="1" parent="WIyWlLk6GJQsqaUBKTNV-1" source="_VbWp3tCUWTPlzPPY_zN-82" target="_VbWp3tCUWTPlzPPY_zN-77">
          <mxGeometry relative="1" as="geometry">
            <Array as="points">
              <mxPoint x="290" y="1410" />
            </Array>
          </mxGeometry>
        </mxCell>
        <mxCell id="_VbWp3tCUWTPlzPPY_zN-82" value="++i" style="rounded=1;whiteSpace=wrap;html=1;fontSize=12;glass=0;strokeWidth=1;shadow=0;" vertex="1" parent="WIyWlLk6GJQsqaUBKTNV-1">
          <mxGeometry x="230" y="1480" width="120" height="40" as="geometry" />
        </mxCell>
        <mxCell id="_VbWp3tCUWTPlzPPY_zN-85" value="Вернуть determinant" style="ellipse;whiteSpace=wrap;html=1;" vertex="1" parent="WIyWlLk6GJQsqaUBKTNV-1">
          <mxGeometry x="540" y="1475" width="120" height="50" as="geometry" />
        </mxCell>
      </root>
    </mxGraphModel>
  </diagram>
</mxfile>
